<svg xmlns="http://www.w3.org/2000/svg" xmlns:xlink="http://www.w3.org/1999/xlink" preserveAspectRatio="xMidYMid" width="529" height="297" viewBox="0 0 529 297">
  <defs>
    <style>

      .cls-2 {
        fill: #ffffff;
      }
    </style>
  </defs>
  <path d="M527.063,190.920 C526.174,190.598 524.703,190.213 522.644,189.768 C520.586,189.323 517.941,189.100 514.713,189.100 C512.613,189.100 510.536,189.323 508.478,189.768 C506.419,190.213 505.067,190.516 504.421,190.677 C504.421,190.677 504.421,243.709 504.421,243.709 C504.421,243.709 493.160,243.709 493.160,243.709 C493.160,243.709 493.160,183.275 493.160,183.275 C495.824,182.304 499.133,181.394 503.090,180.545 C507.043,179.695 511.484,179.270 516.408,179.270 C517.377,179.270 518.485,179.331 519.739,179.452 C520.989,179.574 522.221,179.737 523.431,179.938 C524.642,180.141 525.751,180.344 526.761,180.545 C527.769,180.747 528.517,180.929 529.001,181.090 C529.001,181.090 527.063,190.920 527.063,190.920 ZM500.804,271.254 C502.139,271.827 503.206,272.627 504.006,273.656 C504.803,274.684 505.365,275.917 505.691,277.354 C506.016,278.791 506.181,280.375 506.181,282.105 C506.181,282.105 506.181,296.410 506.181,296.410 C506.181,296.410 501.635,296.410 501.635,296.410 C501.635,296.410 501.635,283.086 501.635,283.086 C501.635,281.517 501.527,280.179 501.316,279.069 C501.105,277.959 500.755,277.060 500.266,276.375 C499.776,275.688 499.125,275.191 498.310,274.880 C497.496,274.570 496.486,274.415 495.281,274.415 C494.792,274.415 494.285,274.432 493.766,274.464 C493.243,274.497 492.747,274.538 492.275,274.586 C491.802,274.635 491.378,274.692 491.003,274.758 C490.629,274.823 490.360,274.872 490.197,274.904 C490.197,274.904 490.197,296.410 490.197,296.410 C490.197,296.410 485.651,296.410 485.651,296.410 C485.651,296.410 485.651,271.671 485.651,271.671 C486.693,271.411 488.079,271.132 489.807,270.838 C491.533,270.544 493.521,270.398 495.768,270.398 C497.789,270.398 499.466,270.684 500.804,271.254 ZM438.432,215.191 C438.916,221.744 440.812,226.720 444.123,230.118 C447.432,233.515 452.599,235.214 459.621,235.214 C463.575,235.214 466.905,234.871 469.610,234.183 C472.314,233.497 474.352,232.829 475.725,232.180 C475.725,232.180 477.299,241.646 477.299,241.646 C475.925,242.374 473.525,243.144 470.094,243.952 C466.663,244.759 462.770,245.165 458.410,245.165 C452.920,245.165 448.178,244.335 444.183,242.678 C440.188,241.020 436.897,238.734 434.315,235.821 C431.730,232.908 429.814,229.450 428.564,225.445 C427.311,221.441 426.686,217.053 426.686,212.278 C426.686,206.696 427.493,201.823 429.108,197.655 C430.723,193.489 432.862,190.031 435.526,187.280 C438.189,184.530 441.256,182.467 444.728,181.090 C448.198,179.716 451.750,179.027 455.383,179.027 C463.859,179.027 470.355,181.678 474.877,186.976 C479.397,192.276 481.658,200.346 481.658,211.186 C481.658,211.672 481.658,212.300 481.658,213.067 C481.658,213.837 481.616,214.544 481.537,215.191 C481.537,215.191 438.432,215.191 438.432,215.191 ZM466.099,193.529 C463.475,190.253 459.863,188.614 455.262,188.614 C452.677,188.614 450.398,189.121 448.421,190.132 C446.442,191.144 444.767,192.458 443.396,194.075 C442.022,195.695 440.954,197.555 440.188,199.658 C439.419,201.762 438.916,203.905 438.674,206.090 C438.674,206.090 469.913,206.090 469.913,206.090 C469.992,200.992 468.721,196.806 466.099,193.529 ZM391.196,111.867 C384.976,111.867 369.173,111.867 369.173,111.867 C369.173,111.867 409.156,35.706 411.455,31.776 C413.753,27.846 418.486,22.967 426.463,22.967 C426.463,22.967 445.176,22.967 445.176,22.967 C445.176,22.967 401.337,105.769 401.337,105.769 C401.337,105.769 397.416,111.867 391.196,111.867 ZM374.164,41.308 C374.164,41.308 324.877,41.308 324.877,41.308 C321.389,41.270 317.996,43.198 316.129,46.145 C316.129,46.145 296.480,81.429 296.480,81.429 C293.533,86.721 297.350,93.236 303.396,93.236 C303.396,93.236 318.263,93.236 318.263,93.236 C318.263,93.236 321.348,93.236 321.348,93.236 C321.348,93.236 367.021,93.236 367.021,93.236 C367.021,93.236 364.317,98.391 364.317,98.391 C359.680,106.708 353.418,111.862 343.911,111.862 C343.911,111.862 321.348,111.862 321.348,111.862 C321.348,111.862 318.263,111.862 318.263,111.862 C318.263,111.862 292.817,111.862 292.817,111.862 C292.819,111.862 292.821,111.862 292.823,111.862 C290.108,111.862 288.185,111.862 288.185,111.862 C288.185,111.862 288.185,111.862 288.185,111.862 C287.630,111.862 287.303,111.862 287.303,111.862 C287.303,111.862 283.495,111.862 283.495,111.862 C283.495,111.862 264.548,89.472 264.548,89.472 C276.539,66.685 293.600,34.317 295.052,31.785 C297.352,27.854 302.084,22.961 310.078,22.961 C310.078,22.961 404.433,22.961 404.433,22.961 C398.531,34.241 386.872,41.308 374.164,41.308 ZM262.227,67.107 C259.150,72.906 253.332,76.642 246.867,77.152 C246.867,77.152 276.250,111.867 276.250,111.867 C276.250,111.867 252.452,111.867 248.125,111.867 C243.798,111.867 242.040,109.699 240.836,108.208 C239.831,106.964 221.555,84.620 215.530,77.255 C215.530,77.255 197.417,77.255 197.417,77.255 C187.353,77.255 182.240,81.572 182.240,81.572 C182.240,81.572 189.933,67.070 189.933,67.070 C192.651,61.946 197.969,58.744 203.759,58.744 C203.759,58.744 238.657,58.744 238.657,58.744 C240.983,58.744 243.119,57.459 244.213,55.402 C244.213,55.402 248.875,46.631 248.875,46.631 C250.131,44.257 248.414,41.397 245.733,41.397 C245.733,41.397 194.631,41.397 194.631,41.397 C191.143,41.376 187.892,42.515 186.030,45.471 C186.030,45.471 149.251,115.014 149.251,115.014 C149.251,115.014 158.041,115.014 158.041,115.014 C158.041,115.014 121.116,137.978 121.116,137.978 C121.116,137.978 110.511,115.014 110.511,115.014 C110.511,115.014 120.294,115.014 120.294,115.014 C120.294,115.014 164.506,31.776 164.506,31.776 C166.804,27.846 171.537,22.967 179.515,22.967 C179.515,22.967 268.715,22.967 268.715,22.967 C276.389,22.967 281.300,31.158 277.696,37.949 C277.696,37.949 262.227,67.107 262.227,67.107 ZM111.539,103.058 C109.241,106.988 104.508,111.867 96.530,111.867 C96.530,111.867 78.040,111.867 78.040,111.867 C78.040,111.867 125.203,22.967 125.203,22.967 C125.203,22.967 113.851,22.967 113.851,22.967 C113.851,22.967 152.531,0.003 152.531,0.003 C152.531,0.003 164.432,22.967 164.432,22.967 C164.432,22.967 154.057,22.967 154.057,22.967 C154.057,22.967 113.838,99.128 111.539,103.058 ZM94.079,186.490 C99.325,192.033 101.949,200.185 101.949,210.943 C101.949,211.996 101.907,213.149 101.828,214.402 C101.747,215.657 101.665,216.769 101.585,217.740 C101.585,217.740 60.660,217.740 60.660,217.740 C61.063,221.461 62.797,224.413 65.866,226.599 C68.933,228.783 73.050,229.875 78.217,229.875 C81.526,229.875 84.774,229.571 87.964,228.964 C91.152,228.358 93.755,227.611 95.774,226.720 C95.774,226.720 98.195,241.403 98.195,241.403 C97.227,241.889 95.935,242.374 94.321,242.860 C92.705,243.345 90.909,243.770 88.933,244.134 C86.954,244.498 84.835,244.801 82.576,245.044 C80.315,245.286 78.054,245.408 75.795,245.408 C70.063,245.408 65.080,244.558 60.842,242.860 C56.604,241.161 53.092,238.836 50.307,235.882 C47.522,232.930 45.464,229.431 44.132,225.385 C42.800,221.340 42.134,216.972 42.134,212.278 C42.134,206.617 43.001,201.660 44.738,197.412 C46.473,193.165 48.752,189.627 51.579,186.794 C54.404,183.963 57.652,181.818 61.326,180.362 C64.998,178.906 68.773,178.178 72.647,178.178 C81.686,178.178 88.830,180.950 94.079,186.490 ZM83.726,200.871 C83.281,199.415 82.595,198.122 81.668,196.988 C80.739,195.856 79.567,194.925 78.156,194.197 C76.743,193.468 74.987,193.104 72.889,193.104 C70.871,193.104 69.136,193.450 67.683,194.136 C66.230,194.824 65.019,195.735 64.050,196.867 C63.081,198.001 62.334,199.314 61.810,200.811 C61.284,202.309 60.902,203.825 60.660,205.362 C60.660,205.362 84.513,205.362 84.513,205.362 C84.432,203.825 84.169,202.327 83.726,200.871 ZM32.690,194.621 C30.510,194.178 28.168,193.954 25.667,193.954 C24.536,193.954 23.185,194.056 21.611,194.257 C20.037,194.460 18.845,194.682 18.039,194.925 C18.039,194.925 18.039,243.709 18.039,243.709 C18.039,243.709 -0.002,243.709 -0.002,243.709 C-0.002,243.709 -0.002,183.275 -0.002,183.275 C3.225,182.142 7.039,181.072 11.440,180.059 C15.838,179.048 20.742,178.542 26.151,178.542 C27.120,178.542 28.289,178.603 29.663,178.724 C31.034,178.846 32.406,179.008 33.779,179.210 C35.151,179.413 36.523,179.655 37.897,179.938 C39.268,180.222 40.439,180.565 41.407,180.969 C41.407,180.969 38.380,195.896 38.380,195.896 C36.765,195.492 34.869,195.067 32.690,194.621 ZM115.147,208.395 C117.648,206.860 120.514,205.746 123.744,205.058 C126.971,204.372 130.322,204.026 133.794,204.026 C136.134,204.026 138.213,204.129 140.030,204.330 C141.846,204.533 143.318,204.796 144.449,205.119 C144.449,205.119 144.449,203.419 144.449,203.419 C144.449,200.346 143.520,197.879 141.664,196.017 C139.806,194.156 136.579,193.225 131.978,193.225 C128.909,193.225 125.882,193.450 122.896,193.893 C119.909,194.339 117.327,194.967 115.147,195.775 C115.147,195.775 112.847,181.211 112.847,181.211 C113.895,180.889 115.208,180.545 116.782,180.181 C118.356,179.817 120.070,179.494 121.928,179.210 C123.784,178.927 125.742,178.684 127.800,178.482 C129.859,178.280 131.936,178.178 134.036,178.178 C139.364,178.178 143.802,178.785 147.355,179.998 C150.906,181.211 153.752,182.952 155.891,185.217 C158.029,187.483 159.543,190.234 160.432,193.468 C161.319,196.706 161.764,200.306 161.764,204.269 C161.764,204.269 161.764,241.889 161.764,241.889 C159.180,242.456 155.589,243.124 150.988,243.892 C146.386,244.659 140.817,245.044 134.278,245.044 C130.161,245.044 126.427,244.680 123.078,243.952 C119.727,243.224 116.842,242.031 114.421,240.372 C111.999,238.715 110.141,236.550 108.851,233.879 C107.559,231.210 106.914,227.933 106.914,224.049 C106.914,220.330 107.659,217.175 109.154,214.584 C110.646,211.996 112.644,209.933 115.147,208.395 ZM127.679,229.450 C129.575,230.543 132.178,231.088 135.489,231.088 C137.263,231.088 138.959,231.049 140.575,230.967 C142.188,230.887 143.480,230.766 144.449,230.603 C144.449,230.603 144.449,216.890 144.449,216.890 C143.722,216.729 142.633,216.567 141.180,216.405 C139.727,216.244 138.395,216.162 137.184,216.162 C135.489,216.162 133.894,216.264 132.401,216.465 C130.906,216.668 129.596,217.053 128.466,217.618 C127.335,218.185 126.448,218.953 125.802,219.924 C125.155,220.895 124.833,222.108 124.833,223.564 C124.833,226.397 125.781,228.358 127.679,229.450 ZM191.428,219.074 C191.428,220.694 191.549,222.150 191.791,223.443 C192.034,224.738 192.497,225.830 193.184,226.720 C193.869,227.611 194.858,228.339 196.150,228.904 C197.441,229.471 199.178,229.835 201.357,229.996 C201.357,229.996 198.814,244.922 198.814,244.922 C193.566,244.841 189.309,244.274 186.040,243.224 C182.771,242.173 180.186,240.696 178.291,238.794 C176.393,236.894 175.101,234.589 174.416,231.878 C173.729,229.167 173.387,226.113 173.387,222.715 C173.387,222.715 173.387,152.451 173.387,152.451 C173.387,152.451 191.428,149.538 191.428,149.538 C191.428,149.538 191.428,219.074 191.428,219.074 ZM212.738,188.433 C215.320,185.480 218.489,183.174 222.243,181.515 C225.996,179.858 230.174,179.027 234.775,179.027 C237.600,179.027 240.424,179.270 243.251,179.755 C246.075,180.241 248.779,181.011 251.363,182.061 C251.363,182.061 248.820,191.648 248.820,191.648 C247.125,190.840 245.167,190.192 242.948,189.706 C240.727,189.221 238.366,188.978 235.865,188.978 C229.568,188.978 224.744,190.962 221.395,194.925 C218.045,198.890 216.370,204.674 216.370,212.278 C216.370,215.677 216.752,218.792 217.521,221.623 C218.287,224.455 219.497,226.883 221.153,228.904 C222.807,230.927 224.926,232.484 227.510,233.576 C230.092,234.668 233.240,235.214 236.954,235.214 C239.940,235.214 242.645,234.932 245.067,234.365 C247.489,233.800 249.384,233.193 250.758,232.544 C250.758,232.544 252.332,242.010 252.332,242.010 C251.685,242.416 250.758,242.799 249.547,243.163 C248.336,243.527 246.962,243.850 245.430,244.134 C243.896,244.417 242.261,244.659 240.526,244.862 C238.789,245.063 237.115,245.165 235.501,245.165 C230.416,245.165 225.954,244.355 222.122,242.738 C218.287,241.121 215.058,238.855 212.435,235.942 C209.811,233.030 207.853,229.571 206.563,225.567 C205.271,221.562 204.625,217.133 204.625,212.278 C204.625,207.425 205.331,202.976 206.744,198.930 C208.156,194.885 210.154,191.387 212.738,188.433 ZM265.045,187.280 C267.709,184.530 270.776,182.467 274.247,181.090 C277.717,179.716 281.270,179.027 284.902,179.027 C293.378,179.027 299.875,181.678 304.397,186.976 C308.917,192.276 311.177,200.346 311.177,211.186 C311.177,211.672 311.177,212.300 311.177,213.067 C311.177,213.837 311.136,214.544 311.056,215.191 C311.056,215.191 267.951,215.191 267.951,215.191 C268.435,221.744 270.331,226.720 273.642,230.118 C276.951,233.515 282.118,235.214 289.140,235.214 C293.094,235.214 296.424,234.871 299.130,234.183 C301.833,233.497 303.870,232.829 305.244,232.180 C305.244,232.180 306.818,241.646 306.818,241.646 C305.445,242.374 303.044,243.144 299.614,243.952 C296.182,244.759 292.288,245.165 287.930,245.165 C282.439,245.165 277.698,244.335 273.702,242.678 C269.706,241.020 266.416,238.734 263.834,235.821 C261.250,232.908 259.333,229.450 258.083,225.445 C256.830,221.441 256.206,217.053 256.206,212.278 C256.206,206.696 257.012,201.823 258.628,197.655 C260.241,193.489 262.381,190.031 265.045,187.280 ZM299.432,206.090 C299.512,200.992 298.241,196.806 295.618,193.529 C292.994,190.253 289.383,188.614 284.781,188.614 C282.197,188.614 279.917,189.121 277.940,190.132 C275.961,191.144 274.287,192.458 272.915,194.075 C271.542,195.695 270.473,197.555 269.706,199.658 C268.939,201.762 268.435,203.905 268.193,206.090 C268.193,206.090 299.432,206.090 299.432,206.090 ZM286.237,260.355 C287.050,260.355 287.743,260.626 288.314,261.163 C288.883,261.702 289.169,262.429 289.169,263.343 C289.169,264.258 288.883,264.985 288.314,265.523 C287.743,266.062 287.050,266.332 286.237,266.332 C285.421,266.332 284.729,266.062 284.159,265.523 C283.588,264.985 283.304,264.258 283.304,263.343 C283.304,262.429 283.588,261.702 284.159,261.163 C284.729,260.626 285.421,260.355 286.237,260.355 ZM288.534,296.410 C288.534,296.410 283.988,296.410 283.988,296.410 C283.988,296.410 283.988,270.937 283.988,270.937 C283.988,270.937 288.534,270.937 288.534,270.937 C288.534,270.937 288.534,296.410 288.534,296.410 ZM306.470,270.398 C308.490,270.398 310.168,270.684 311.505,271.254 C312.841,271.827 313.907,272.627 314.707,273.656 C315.504,274.684 316.066,275.917 316.392,277.354 C316.718,278.791 316.882,280.375 316.882,282.105 C316.882,282.105 316.882,296.410 316.882,296.410 C316.882,296.410 312.336,296.410 312.336,296.410 C312.336,296.410 312.336,283.086 312.336,283.086 C312.336,281.517 312.229,280.179 312.018,279.069 C311.806,277.959 311.456,277.060 310.968,276.375 C310.478,275.688 309.827,275.191 309.012,274.880 C308.197,274.570 307.187,274.415 305.982,274.415 C305.493,274.415 304.987,274.432 304.467,274.464 C303.945,274.497 303.448,274.538 302.976,274.586 C302.503,274.635 302.079,274.692 301.705,274.758 C301.330,274.823 301.062,274.872 300.899,274.904 C300.899,274.904 300.899,296.410 300.899,296.410 C300.899,296.410 296.353,296.410 296.353,296.410 C296.353,296.410 296.353,271.671 296.353,271.671 C297.395,271.411 298.780,271.132 300.508,270.838 C302.234,270.544 304.223,270.398 306.470,270.398 ZM326.779,276.056 C327.317,277.868 327.887,279.665 328.490,281.445 C329.093,283.225 329.703,284.946 330.323,286.612 C330.942,288.278 331.528,289.764 332.083,291.069 C332.636,289.764 333.223,288.278 333.842,286.612 C334.460,284.946 335.072,283.225 335.675,281.445 C336.278,279.665 336.848,277.868 337.386,276.056 C337.923,274.244 338.388,272.538 338.778,270.937 C338.778,270.937 343.471,270.937 343.471,270.937 C342.200,275.705 340.709,280.278 338.999,284.652 C337.288,289.029 335.634,292.949 334.037,296.410 C334.037,296.410 329.932,296.410 329.932,296.410 C328.335,292.949 326.681,289.029 324.970,284.652 C323.261,280.278 321.769,275.705 320.498,270.937 C320.498,270.937 325.386,270.937 325.386,270.937 C325.777,272.538 326.242,274.244 326.779,276.056 ZM349.629,273.631 C350.705,272.521 351.943,271.688 353.344,271.132 C354.745,270.578 356.179,270.301 357.646,270.301 C361.067,270.301 363.689,271.370 365.514,273.508 C367.339,275.648 368.251,278.906 368.251,283.282 C368.251,283.477 368.251,283.730 368.251,284.041 C368.251,284.352 368.235,284.637 368.203,284.898 C368.203,284.898 350.802,284.898 350.802,284.898 C350.998,287.543 351.763,289.551 353.100,290.923 C354.436,292.295 356.521,292.980 359.356,292.980 C360.952,292.980 362.296,292.843 363.389,292.564 C364.479,292.287 365.302,292.018 365.857,291.756 C365.857,291.756 366.492,295.577 366.492,295.577 C365.937,295.871 364.969,296.181 363.584,296.507 C362.198,296.835 360.626,296.998 358.867,296.998 C356.651,296.998 354.738,296.662 353.124,295.993 C351.511,295.325 350.183,294.401 349.141,293.226 C348.098,292.050 347.324,290.655 346.819,289.037 C346.313,287.420 346.061,285.650 346.061,283.722 C346.061,281.468 346.387,279.502 347.039,277.819 C347.691,276.138 348.555,274.741 349.629,273.631 ZM363.511,281.223 C363.543,279.166 363.029,277.477 361.971,276.153 C360.911,274.832 359.453,274.170 357.596,274.170 C356.553,274.170 355.633,274.375 354.835,274.783 C354.036,275.191 353.360,275.722 352.806,276.375 C352.252,277.028 351.820,277.779 351.511,278.627 C351.201,279.477 350.998,280.342 350.901,281.223 C350.901,281.223 363.511,281.223 363.511,281.223 ZM322.679,243.709 C322.679,243.709 322.679,182.425 322.679,182.425 C325.261,181.778 328.692,181.090 332.971,180.362 C337.248,179.634 342.173,179.270 347.743,179.270 C352.746,179.270 356.904,179.980 360.215,181.394 C363.524,182.810 366.166,184.792 368.145,187.340 C370.121,189.889 371.515,192.943 372.323,196.503 C373.129,200.063 373.533,203.986 373.533,208.274 C373.533,208.274 373.533,243.709 373.533,243.709 C373.533,243.709 362.274,243.709 362.274,243.709 C362.274,243.709 362.274,210.701 362.274,210.701 C362.274,206.818 362.010,203.501 361.486,200.750 C360.960,198.001 360.092,195.775 358.883,194.075 C357.672,192.376 356.055,191.144 354.039,190.374 C352.020,189.607 349.517,189.221 346.532,189.221 C345.322,189.221 344.068,189.263 342.779,189.342 C341.486,189.424 340.254,189.525 339.085,189.646 C337.915,189.768 336.865,189.909 335.938,190.070 C335.009,190.234 334.342,190.355 333.939,190.435 C333.939,190.435 333.939,243.709 333.939,243.709 C333.939,243.709 322.679,243.709 322.679,243.709 ZM376.169,292.541 C377.310,292.932 378.824,293.128 380.714,293.128 C382.572,293.128 383.948,292.883 384.845,292.393 C385.740,291.902 386.189,291.120 386.189,290.042 C386.189,288.931 385.749,288.050 384.869,287.396 C383.989,286.743 382.539,286.008 380.519,285.192 C379.541,284.800 378.605,284.401 377.708,283.991 C376.812,283.584 376.039,283.102 375.387,282.547 C374.735,281.992 374.214,281.322 373.823,280.538 C373.432,279.754 373.236,278.791 373.236,277.648 C373.236,275.394 374.067,273.606 375.730,272.284 C377.391,270.961 379.655,270.301 382.523,270.301 C383.239,270.301 383.957,270.341 384.674,270.422 C385.390,270.504 386.058,270.603 386.678,270.716 C387.296,270.831 387.842,270.954 388.315,271.083 C388.786,271.214 389.154,271.328 389.415,271.426 C389.415,271.426 388.584,275.345 388.584,275.345 C388.095,275.085 387.329,274.815 386.287,274.538 C385.244,274.261 383.989,274.121 382.523,274.121 C381.252,274.121 380.144,274.375 379.200,274.880 C378.254,275.387 377.782,276.178 377.782,277.257 C377.782,277.812 377.888,278.301 378.100,278.726 C378.311,279.151 378.637,279.534 379.077,279.876 C379.517,280.219 380.062,280.538 380.714,280.832 C381.366,281.126 382.148,281.436 383.061,281.762 C384.266,282.221 385.341,282.669 386.287,283.109 C387.232,283.551 388.038,284.065 388.706,284.652 C389.373,285.240 389.886,285.951 390.245,286.784 C390.604,287.617 390.783,288.638 390.783,289.845 C390.783,292.196 389.911,293.978 388.168,295.185 C386.425,296.393 383.941,296.998 380.714,296.998 C378.467,296.998 376.706,296.809 375.436,296.435 C374.165,296.059 373.301,295.773 372.846,295.577 C372.846,295.577 373.676,291.659 373.676,291.659 C374.197,291.854 375.028,292.147 376.169,292.541 ZM386.730,219.317 C386.730,219.317 386.730,163.009 386.730,163.009 C386.730,163.009 397.991,161.067 397.991,161.067 C397.991,161.067 397.991,180.605 397.991,180.605 C397.991,180.605 421.845,180.605 421.845,180.605 C421.845,180.605 421.845,190.070 421.845,190.070 C421.845,190.070 397.991,190.070 397.991,190.070 C397.991,190.070 397.991,219.196 397.991,219.196 C397.991,222.351 398.233,224.960 398.717,227.023 C399.202,229.086 399.929,230.705 400.897,231.878 C401.866,233.051 403.077,233.879 404.530,234.365 C405.983,234.850 407.678,235.093 409.615,235.093 C413.006,235.093 415.729,234.710 417.788,233.940 C419.846,233.173 421.279,232.626 422.086,232.302 C422.086,232.302 424.266,241.646 424.266,241.646 C423.135,242.213 421.157,242.921 418.333,243.770 C415.506,244.620 412.279,245.044 408.646,245.044 C404.367,245.044 400.836,244.498 398.051,243.406 C395.267,242.314 393.027,240.675 391.331,238.491 C389.637,236.307 388.445,233.618 387.759,230.420 C387.073,227.226 386.730,223.524 386.730,219.317 ZM400.852,270.937 C400.852,270.937 410.481,270.937 410.481,270.937 C410.481,270.937 410.481,274.758 410.481,274.758 C410.481,274.758 400.852,274.758 400.852,274.758 C400.852,274.758 400.852,286.515 400.852,286.515 C400.852,287.788 400.949,288.841 401.145,289.674 C401.340,290.507 401.633,291.160 402.024,291.634 C402.416,292.107 402.904,292.441 403.491,292.638 C404.077,292.834 404.762,292.932 405.543,292.932 C406.912,292.932 408.011,292.777 408.843,292.467 C409.674,292.156 410.252,291.936 410.578,291.805 C410.578,291.805 411.457,295.577 411.457,295.577 C411.001,295.805 410.203,296.091 409.063,296.435 C407.922,296.777 406.619,296.949 405.153,296.949 C403.425,296.949 402.000,296.729 400.876,296.287 C399.752,295.847 398.848,295.185 398.163,294.304 C397.479,293.422 396.998,292.336 396.721,291.046 C396.444,289.756 396.306,288.261 396.306,286.564 C396.306,286.564 396.306,263.833 396.306,263.833 C396.306,263.833 400.852,263.049 400.852,263.049 C400.852,263.049 400.852,270.937 400.852,270.937 ZM426.316,270.398 C427.944,270.398 429.313,270.618 430.422,271.060 C431.529,271.500 432.458,272.145 433.207,272.994 C433.435,272.831 433.794,272.603 434.282,272.307 C434.772,272.014 435.374,271.728 436.091,271.451 C436.807,271.174 437.607,270.929 438.486,270.716 C439.366,270.504 440.310,270.398 441.321,270.398 C443.276,270.398 444.872,270.684 446.111,271.254 C447.349,271.827 448.318,272.635 449.019,273.680 C449.720,274.726 450.192,275.967 450.437,277.403 C450.681,278.840 450.803,280.409 450.803,282.105 C450.803,282.105 450.803,296.410 450.803,296.410 C450.803,296.410 446.258,296.410 446.258,296.410 C446.258,296.410 446.258,283.086 446.258,283.086 C446.258,281.584 446.184,280.293 446.037,279.215 C445.891,278.138 445.613,277.240 445.206,276.521 C444.799,275.804 444.245,275.272 443.545,274.929 C442.844,274.586 441.940,274.415 440.832,274.415 C439.300,274.415 438.038,274.618 437.045,275.026 C436.050,275.436 435.374,275.804 435.016,276.130 C435.276,276.979 435.472,277.910 435.603,278.921 C435.733,279.933 435.798,280.997 435.798,282.105 C435.798,282.105 435.798,296.410 435.798,296.410 C435.798,296.410 431.252,296.410 431.252,296.410 C431.252,296.410 431.252,283.086 431.252,283.086 C431.252,281.584 431.171,280.293 431.008,279.215 C430.845,278.138 430.560,277.240 430.153,276.521 C429.745,275.804 429.191,275.272 428.491,274.929 C427.789,274.586 426.902,274.415 425.827,274.415 C425.371,274.415 424.881,274.432 424.361,274.464 C423.839,274.497 423.342,274.538 422.870,274.586 C422.397,274.635 421.966,274.692 421.575,274.758 C421.183,274.823 420.923,274.872 420.793,274.904 C420.793,274.904 420.793,296.410 420.793,296.410 C420.793,296.410 416.247,296.410 416.247,296.410 C416.247,296.410 416.247,271.671 416.247,271.671 C417.289,271.411 418.667,271.132 420.377,270.838 C422.088,270.544 424.067,270.398 426.316,270.398 ZM460.480,273.631 C461.556,272.521 462.793,271.688 464.195,271.132 C465.596,270.578 467.030,270.301 468.496,270.301 C471.918,270.301 474.540,271.370 476.365,273.508 C478.190,275.648 479.103,278.906 479.103,283.282 C479.103,283.477 479.103,283.730 479.103,284.041 C479.103,284.352 479.086,284.637 479.054,284.898 C479.054,284.898 461.653,284.898 461.653,284.898 C461.849,287.543 462.614,289.551 463.951,290.923 C465.287,292.295 467.372,292.980 470.207,292.980 C471.804,292.980 473.148,292.843 474.240,292.564 C475.331,292.287 476.154,292.018 476.708,291.756 C476.708,291.756 477.343,295.577 477.343,295.577 C476.789,295.871 475.820,296.181 474.435,296.507 C473.049,296.835 471.477,296.998 469.718,296.998 C467.502,296.998 465.588,296.662 463.975,295.993 C462.362,295.325 461.034,294.401 459.992,293.226 C458.949,292.050 458.175,290.655 457.670,289.037 C457.164,287.420 456.912,285.650 456.912,283.722 C456.912,281.468 457.238,279.502 457.890,277.819 C458.542,276.138 459.405,274.741 460.480,273.631 ZM474.363,281.223 C474.394,279.166 473.880,277.477 472.823,276.153 C471.762,274.832 470.304,274.170 468.447,274.170 C467.404,274.170 466.484,274.375 465.686,274.783 C464.887,275.191 464.211,275.722 463.657,276.375 C463.103,277.028 462.671,277.779 462.362,278.627 C462.052,279.477 461.849,280.342 461.751,281.223 C461.751,281.223 474.363,281.223 474.363,281.223 ZM517.960,270.937 C517.960,270.937 527.588,270.937 527.588,270.937 C527.588,270.937 527.588,274.758 527.588,274.758 C527.588,274.758 517.960,274.758 517.960,274.758 C517.960,274.758 517.960,286.515 517.960,286.515 C517.960,287.788 518.057,288.841 518.253,289.674 C518.448,290.507 518.741,291.160 519.133,291.634 C519.523,292.107 520.013,292.441 520.599,292.638 C521.186,292.834 521.869,292.932 522.652,292.932 C524.021,292.932 525.120,292.777 525.951,292.467 C526.782,292.156 527.360,291.936 527.685,291.805 C527.685,291.805 528.566,295.577 528.566,295.577 C528.111,295.805 527.310,296.091 526.170,296.435 C525.029,296.777 523.727,296.949 522.261,296.949 C520.534,296.949 519.108,296.729 517.983,296.287 C516.859,295.847 515.956,295.185 515.271,294.304 C514.587,293.422 514.106,292.336 513.830,291.046 C513.552,289.756 513.414,288.261 513.414,286.564 C513.414,286.564 513.414,263.833 513.414,263.833 C513.414,263.833 517.960,263.049 517.960,263.049 C517.960,263.049 517.960,270.937 517.960,270.937 Z" id="path-1" class="cls-2" fill-rule="evenodd"/>
</svg>
